<mxfile host="app.diagrams.net" modified="2023-11-10T21:44:19.680Z" agent="Mozilla/5.0 (Windows NT 10.0; Win64; x64) AppleWebKit/537.36 (KHTML, like Gecko) Chrome/92.0.4515.131 Safari/537.36 Edg/92.0.902.67" etag="adDxQ8RaG60gEI8oWm0A" version="22.1.0" type="github">
  <diagram name="PÃ¡gina-1" id="cU2PM1eZnQzpYozo2eQO">
    <mxGraphModel dx="2071" dy="661" grid="1" gridSize="10" guides="1" tooltips="1" connect="1" arrows="1" fold="1" page="1" pageScale="1" pageWidth="827" pageHeight="1169" math="0" shadow="0">
      <root>
        <mxCell id="0" />
        <mxCell id="1" parent="0" />
        <mxCell id="WWW5GYvGID_YNc6uDBtJ-123" style="edgeStyle=none;rounded=0;orthogonalLoop=1;jettySize=auto;html=1;exitX=0.25;exitY=1;exitDx=0;exitDy=0;strokeColor=default;endArrow=none;endFill=0;" parent="1" source="WWW5GYvGID_YNc6uDBtJ-65" target="WWW5GYvGID_YNc6uDBtJ-73" edge="1">
          <mxGeometry relative="1" as="geometry" />
        </mxCell>
        <mxCell id="WWW5GYvGID_YNc6uDBtJ-124" style="edgeStyle=none;rounded=0;orthogonalLoop=1;jettySize=auto;html=1;exitX=0.133;exitY=1;exitDx=0;exitDy=0;endArrow=none;endFill=0;exitPerimeter=0;" parent="1" source="WWW5GYvGID_YNc6uDBtJ-65" target="WWW5GYvGID_YNc6uDBtJ-74" edge="1">
          <mxGeometry relative="1" as="geometry" />
        </mxCell>
        <mxCell id="WWW5GYvGID_YNc6uDBtJ-153" style="edgeStyle=none;rounded=0;orthogonalLoop=1;jettySize=auto;html=1;exitX=0.75;exitY=1;exitDx=0;exitDy=0;entryX=0.5;entryY=0;entryDx=0;entryDy=0;endArrow=none;endFill=0;" parent="1" source="WWW5GYvGID_YNc6uDBtJ-65" target="WWW5GYvGID_YNc6uDBtJ-126" edge="1">
          <mxGeometry relative="1" as="geometry" />
        </mxCell>
        <mxCell id="WWW5GYvGID_YNc6uDBtJ-65" value="" style="rounded=0;whiteSpace=wrap;html=1;fillColor=none;strokeColor=#6c8ebf;" parent="1" vertex="1">
          <mxGeometry x="-770" y="120" width="490" height="422.5" as="geometry" />
        </mxCell>
        <mxCell id="WWW5GYvGID_YNc6uDBtJ-1" value="&lt;font style=&quot;font-size: 25px;&quot;&gt;Videojuego&lt;/font&gt;" style="rounded=0;whiteSpace=wrap;html=1;fillColor=#dae8fc;strokeColor=#6c8ebf;" parent="1" vertex="1">
          <mxGeometry x="-220" y="30" width="240" height="80" as="geometry" />
        </mxCell>
        <mxCell id="WWW5GYvGID_YNc6uDBtJ-18" value="Caracter" style="rounded=0;whiteSpace=wrap;html=1;fillColor=#dae8fc;strokeColor=#6c8ebf;" parent="1" vertex="1">
          <mxGeometry x="-590" y="290" width="120" height="40" as="geometry" />
        </mxCell>
        <mxCell id="WWW5GYvGID_YNc6uDBtJ-137" style="edgeStyle=none;rounded=0;orthogonalLoop=1;jettySize=auto;html=1;exitX=0.5;exitY=0;exitDx=0;exitDy=0;entryX=0;entryY=1;entryDx=0;entryDy=0;endArrow=none;endFill=0;" parent="1" source="WWW5GYvGID_YNc6uDBtJ-20" target="WWW5GYvGID_YNc6uDBtJ-44" edge="1">
          <mxGeometry relative="1" as="geometry" />
        </mxCell>
        <mxCell id="WWW5GYvGID_YNc6uDBtJ-138" style="edgeStyle=none;rounded=0;orthogonalLoop=1;jettySize=auto;html=1;exitX=1;exitY=0;exitDx=0;exitDy=0;entryX=0;entryY=0.5;entryDx=0;entryDy=0;endArrow=none;endFill=0;" parent="1" source="WWW5GYvGID_YNc6uDBtJ-20" target="WWW5GYvGID_YNc6uDBtJ-46" edge="1">
          <mxGeometry relative="1" as="geometry" />
        </mxCell>
        <mxCell id="WWW5GYvGID_YNc6uDBtJ-139" style="edgeStyle=none;rounded=0;orthogonalLoop=1;jettySize=auto;html=1;exitX=1;exitY=0.5;exitDx=0;exitDy=0;entryX=0;entryY=0.5;entryDx=0;entryDy=0;endArrow=none;endFill=0;" parent="1" source="WWW5GYvGID_YNc6uDBtJ-20" target="WWW5GYvGID_YNc6uDBtJ-45" edge="1">
          <mxGeometry relative="1" as="geometry" />
        </mxCell>
        <mxCell id="WWW5GYvGID_YNc6uDBtJ-20" value="Objeto de&amp;nbsp; Bonificacion" style="rounded=0;whiteSpace=wrap;html=1;fillColor=#dae8fc;strokeColor=#6c8ebf;" parent="1" vertex="1">
          <mxGeometry x="414" y="160" width="120" height="40" as="geometry" />
        </mxCell>
        <mxCell id="guga55nEFlPqjxyu7WlX-4" style="edgeStyle=orthogonalEdgeStyle;rounded=0;orthogonalLoop=1;jettySize=auto;html=1;exitX=1;exitY=0.5;exitDx=0;exitDy=0;entryX=0.25;entryY=0;entryDx=0;entryDy=0;endArrow=none;endFill=0;" edge="1" parent="1" source="WWW5GYvGID_YNc6uDBtJ-29" target="WWW5GYvGID_YNc6uDBtJ-18">
          <mxGeometry relative="1" as="geometry">
            <Array as="points">
              <mxPoint x="-650" y="250" />
              <mxPoint x="-570" y="250" />
              <mxPoint x="-570" y="290" />
            </Array>
          </mxGeometry>
        </mxCell>
        <mxCell id="WWW5GYvGID_YNc6uDBtJ-29" value="&lt;u&gt;ID&lt;/u&gt;" style="ellipse;whiteSpace=wrap;html=1;fillColor=#e1d5e7;strokeColor=#9673a6;" parent="1" vertex="1">
          <mxGeometry x="-690" y="220" width="40" height="20" as="geometry" />
        </mxCell>
        <mxCell id="guga55nEFlPqjxyu7WlX-7" style="edgeStyle=orthogonalEdgeStyle;rounded=0;orthogonalLoop=1;jettySize=auto;html=1;exitX=1;exitY=0.5;exitDx=0;exitDy=0;entryX=0;entryY=0.5;entryDx=0;entryDy=0;endArrow=none;endFill=0;" edge="1" parent="1" source="WWW5GYvGID_YNc6uDBtJ-30" target="WWW5GYvGID_YNc6uDBtJ-18">
          <mxGeometry relative="1" as="geometry">
            <Array as="points">
              <mxPoint x="-610" y="368" />
              <mxPoint x="-610" y="310" />
            </Array>
          </mxGeometry>
        </mxCell>
        <mxCell id="WWW5GYvGID_YNc6uDBtJ-30" value="Nivel de Energia" style="ellipse;whiteSpace=wrap;html=1;fillColor=#e1d5e7;strokeColor=#9673a6;" parent="1" vertex="1">
          <mxGeometry x="-745" y="357.5" width="100" height="20" as="geometry" />
        </mxCell>
        <mxCell id="guga55nEFlPqjxyu7WlX-5" style="edgeStyle=orthogonalEdgeStyle;rounded=0;orthogonalLoop=1;jettySize=auto;html=1;exitX=1;exitY=0.5;exitDx=0;exitDy=0;entryX=0;entryY=0;entryDx=0;entryDy=0;endArrow=none;endFill=0;" edge="1" parent="1" source="WWW5GYvGID_YNc6uDBtJ-31" target="WWW5GYvGID_YNc6uDBtJ-18">
          <mxGeometry relative="1" as="geometry" />
        </mxCell>
        <mxCell id="WWW5GYvGID_YNc6uDBtJ-31" value="# de vidas" style="ellipse;whiteSpace=wrap;html=1;fillColor=#e1d5e7;strokeColor=#9673a6;" parent="1" vertex="1">
          <mxGeometry x="-730" y="267.5" width="70" height="20" as="geometry" />
        </mxCell>
        <mxCell id="guga55nEFlPqjxyu7WlX-6" style="edgeStyle=orthogonalEdgeStyle;rounded=0;orthogonalLoop=1;jettySize=auto;html=1;exitX=1;exitY=0.5;exitDx=0;exitDy=0;entryX=0;entryY=0.25;entryDx=0;entryDy=0;endArrow=none;endFill=0;" edge="1" parent="1" source="WWW5GYvGID_YNc6uDBtJ-32" target="WWW5GYvGID_YNc6uDBtJ-18">
          <mxGeometry relative="1" as="geometry" />
        </mxCell>
        <mxCell id="WWW5GYvGID_YNc6uDBtJ-32" value="Cap_Ofensiva" style="ellipse;whiteSpace=wrap;html=1;fillColor=#e1d5e7;strokeColor=#9673a6;" parent="1" vertex="1">
          <mxGeometry x="-740" y="312.5" width="90" height="20" as="geometry" />
        </mxCell>
        <mxCell id="WWW5GYvGID_YNc6uDBtJ-109" style="edgeStyle=none;rounded=0;orthogonalLoop=1;jettySize=auto;html=1;exitX=0.5;exitY=1;exitDx=0;exitDy=0;entryX=1;entryY=0;entryDx=0;entryDy=0;endArrow=none;endFill=0;" parent="1" source="WWW5GYvGID_YNc6uDBtJ-33" target="WWW5GYvGID_YNc6uDBtJ-39" edge="1">
          <mxGeometry relative="1" as="geometry" />
        </mxCell>
        <mxCell id="WWW5GYvGID_YNc6uDBtJ-110" style="edgeStyle=none;rounded=0;orthogonalLoop=1;jettySize=auto;html=1;exitX=0.5;exitY=1;exitDx=0;exitDy=0;entryX=0.5;entryY=0;entryDx=0;entryDy=0;endArrow=none;endFill=0;" parent="1" source="WWW5GYvGID_YNc6uDBtJ-33" target="WWW5GYvGID_YNc6uDBtJ-40" edge="1">
          <mxGeometry relative="1" as="geometry" />
        </mxCell>
        <mxCell id="guga55nEFlPqjxyu7WlX-8" style="edgeStyle=orthogonalEdgeStyle;rounded=0;orthogonalLoop=1;jettySize=auto;html=1;exitX=0.5;exitY=0;exitDx=0;exitDy=0;entryX=0.25;entryY=1;entryDx=0;entryDy=0;endArrow=none;endFill=0;" edge="1" parent="1" source="WWW5GYvGID_YNc6uDBtJ-33" target="WWW5GYvGID_YNc6uDBtJ-18">
          <mxGeometry relative="1" as="geometry">
            <Array as="points">
              <mxPoint x="-630" y="380" />
              <mxPoint x="-560" y="380" />
            </Array>
          </mxGeometry>
        </mxCell>
        <mxCell id="WWW5GYvGID_YNc6uDBtJ-33" value="Coordenadas" style="ellipse;whiteSpace=wrap;html=1;fillColor=#e1d5e7;strokeColor=#9673a6;" parent="1" vertex="1">
          <mxGeometry x="-680" y="400" width="100" height="20" as="geometry" />
        </mxCell>
        <mxCell id="WWW5GYvGID_YNc6uDBtJ-39" value="X" style="ellipse;whiteSpace=wrap;html=1;fillColor=#eeeeee;strokeColor=#36393d;" parent="1" vertex="1">
          <mxGeometry x="-690" y="447.5" width="20" height="20" as="geometry" />
        </mxCell>
        <mxCell id="WWW5GYvGID_YNc6uDBtJ-40" value="Y" style="ellipse;whiteSpace=wrap;html=1;fillColor=#eeeeee;strokeColor=#36393d;" parent="1" vertex="1">
          <mxGeometry x="-600" y="447.5" width="20" height="20" as="geometry" />
        </mxCell>
        <mxCell id="WWW5GYvGID_YNc6uDBtJ-44" value="&lt;u&gt;ID&lt;/u&gt;" style="ellipse;whiteSpace=wrap;html=1;fillColor=#e1d5e7;strokeColor=#9673a6;" parent="1" vertex="1">
          <mxGeometry x="526" y="60" width="40" height="20" as="geometry" />
        </mxCell>
        <mxCell id="WWW5GYvGID_YNc6uDBtJ-45" value="Nivel_Energia" style="ellipse;whiteSpace=wrap;html=1;fillColor=#e1d5e7;strokeColor=#9673a6;" parent="1" vertex="1">
          <mxGeometry x="586" y="140" width="90" height="20" as="geometry" />
        </mxCell>
        <mxCell id="WWW5GYvGID_YNc6uDBtJ-46" value="Factor_Potencia" style="ellipse;whiteSpace=wrap;html=1;fillColor=#e1d5e7;strokeColor=#9673a6;" parent="1" vertex="1">
          <mxGeometry x="586" y="90" width="110" height="20" as="geometry" />
        </mxCell>
        <mxCell id="WWW5GYvGID_YNc6uDBtJ-146" style="edgeStyle=none;rounded=0;orthogonalLoop=1;jettySize=auto;html=1;exitX=1;exitY=0;exitDx=0;exitDy=0;entryX=0;entryY=0.5;entryDx=0;entryDy=0;endArrow=none;endFill=0;" parent="1" source="WWW5GYvGID_YNc6uDBtJ-48" target="WWW5GYvGID_YNc6uDBtJ-49" edge="1">
          <mxGeometry relative="1" as="geometry" />
        </mxCell>
        <mxCell id="WWW5GYvGID_YNc6uDBtJ-147" style="edgeStyle=none;rounded=0;orthogonalLoop=1;jettySize=auto;html=1;exitX=0.5;exitY=1;exitDx=0;exitDy=0;entryX=0.5;entryY=0;entryDx=0;entryDy=0;endArrow=none;endFill=0;" parent="1" source="WWW5GYvGID_YNc6uDBtJ-48" target="WWW5GYvGID_YNc6uDBtJ-52" edge="1">
          <mxGeometry relative="1" as="geometry" />
        </mxCell>
        <mxCell id="WWW5GYvGID_YNc6uDBtJ-48" value="Almacen" style="rounded=0;whiteSpace=wrap;html=1;fillColor=#dae8fc;strokeColor=#6c8ebf;" parent="1" vertex="1">
          <mxGeometry x="558" y="357.5" width="120" height="40" as="geometry" />
        </mxCell>
        <mxCell id="WWW5GYvGID_YNc6uDBtJ-49" value="&lt;u&gt;Nombre&lt;/u&gt;" style="ellipse;whiteSpace=wrap;html=1;fillColor=#e1d5e7;strokeColor=#9673a6;" parent="1" vertex="1">
          <mxGeometry x="724" y="357.5" width="70" height="20" as="geometry" />
        </mxCell>
        <mxCell id="WWW5GYvGID_YNc6uDBtJ-149" style="edgeStyle=none;rounded=0;orthogonalLoop=1;jettySize=auto;html=1;exitX=1;exitY=0.5;exitDx=0;exitDy=0;entryX=0;entryY=0.5;entryDx=0;entryDy=0;endArrow=none;endFill=0;" parent="1" source="WWW5GYvGID_YNc6uDBtJ-50" target="WWW5GYvGID_YNc6uDBtJ-48" edge="1">
          <mxGeometry relative="1" as="geometry" />
        </mxCell>
        <mxCell id="WWW5GYvGID_YNc6uDBtJ-50" value="Posicion" style="ellipse;whiteSpace=wrap;html=1;fillColor=#e1d5e7;strokeColor=#9673a6;" parent="1" vertex="1">
          <mxGeometry x="414" y="430" width="138" height="27.5" as="geometry" />
        </mxCell>
        <mxCell id="WWW5GYvGID_YNc6uDBtJ-52" value="Tipo" style="ellipse;whiteSpace=wrap;html=1;fillColor=#e1d5e7;strokeColor=#9673a6;" parent="1" vertex="1">
          <mxGeometry x="620" y="467.5" width="70" height="20" as="geometry" />
        </mxCell>
        <mxCell id="WWW5GYvGID_YNc6uDBtJ-150" style="edgeStyle=none;rounded=0;orthogonalLoop=1;jettySize=auto;html=1;exitX=0;exitY=0;exitDx=0;exitDy=0;entryX=0.5;entryY=1;entryDx=0;entryDy=0;endArrow=none;endFill=0;" parent="1" source="WWW5GYvGID_YNc6uDBtJ-53" target="WWW5GYvGID_YNc6uDBtJ-50" edge="1">
          <mxGeometry relative="1" as="geometry" />
        </mxCell>
        <mxCell id="WWW5GYvGID_YNc6uDBtJ-53" value="X" style="ellipse;whiteSpace=wrap;html=1;fillColor=#eeeeee;strokeColor=#36393d;" parent="1" vertex="1">
          <mxGeometry x="434" y="480" width="20" height="20" as="geometry" />
        </mxCell>
        <mxCell id="WWW5GYvGID_YNc6uDBtJ-152" style="edgeStyle=none;rounded=0;orthogonalLoop=1;jettySize=auto;html=1;exitX=0.5;exitY=0;exitDx=0;exitDy=0;entryX=0.5;entryY=1;entryDx=0;entryDy=0;endArrow=none;endFill=0;" parent="1" source="WWW5GYvGID_YNc6uDBtJ-54" target="WWW5GYvGID_YNc6uDBtJ-50" edge="1">
          <mxGeometry relative="1" as="geometry" />
        </mxCell>
        <mxCell id="WWW5GYvGID_YNc6uDBtJ-54" value="Y" style="ellipse;whiteSpace=wrap;html=1;fillColor=#eeeeee;strokeColor=#36393d;" parent="1" vertex="1">
          <mxGeometry x="480" y="480" width="20" height="20" as="geometry" />
        </mxCell>
        <mxCell id="WWW5GYvGID_YNc6uDBtJ-66" style="edgeStyle=none;rounded=0;orthogonalLoop=1;jettySize=auto;html=1;exitX=0;exitY=0.5;exitDx=0;exitDy=0;" parent="1" source="WWW5GYvGID_YNc6uDBtJ-65" target="WWW5GYvGID_YNc6uDBtJ-65" edge="1">
          <mxGeometry relative="1" as="geometry" />
        </mxCell>
        <mxCell id="WWW5GYvGID_YNc6uDBtJ-68" value="&lt;font style=&quot;font-size: 18px;&quot;&gt;Duelo&lt;/font&gt;" style="text;strokeColor=none;align=center;fillColor=none;html=1;verticalAlign=middle;whiteSpace=wrap;rounded=0;" parent="1" vertex="1">
          <mxGeometry x="-370" y="500" width="60" height="30" as="geometry" />
        </mxCell>
        <mxCell id="WWW5GYvGID_YNc6uDBtJ-69" value="Color" style="rounded=0;whiteSpace=wrap;html=1;fillColor=#dae8fc;strokeColor=#6c8ebf;" parent="1" vertex="1">
          <mxGeometry x="-250" y="660" width="120" height="40" as="geometry" />
        </mxCell>
        <mxCell id="WWW5GYvGID_YNc6uDBtJ-70" value="&lt;u&gt;Codigo&lt;/u&gt;" style="ellipse;whiteSpace=wrap;html=1;fillColor=#e1d5e7;strokeColor=#9673a6;" parent="1" vertex="1">
          <mxGeometry x="-130" y="755" width="100" height="30" as="geometry" />
        </mxCell>
        <mxCell id="WWW5GYvGID_YNc6uDBtJ-71" value="Descripcion" style="ellipse;whiteSpace=wrap;html=1;fillColor=#e1d5e7;strokeColor=#9673a6;" parent="1" vertex="1">
          <mxGeometry x="-330" y="755" width="100" height="30" as="geometry" />
        </mxCell>
        <mxCell id="WWW5GYvGID_YNc6uDBtJ-121" style="edgeStyle=none;rounded=0;orthogonalLoop=1;jettySize=auto;html=1;exitX=0.5;exitY=1;exitDx=0;exitDy=0;entryX=1;entryY=0;entryDx=0;entryDy=0;endArrow=none;endFill=0;" parent="1" source="WWW5GYvGID_YNc6uDBtJ-73" target="WWW5GYvGID_YNc6uDBtJ-75" edge="1">
          <mxGeometry relative="1" as="geometry" />
        </mxCell>
        <mxCell id="WWW5GYvGID_YNc6uDBtJ-122" style="edgeStyle=none;rounded=0;orthogonalLoop=1;jettySize=auto;html=1;exitX=0.5;exitY=1;exitDx=0;exitDy=0;entryX=0.5;entryY=0;entryDx=0;entryDy=0;endArrow=none;endFill=0;" parent="1" source="WWW5GYvGID_YNc6uDBtJ-73" target="WWW5GYvGID_YNc6uDBtJ-76" edge="1">
          <mxGeometry relative="1" as="geometry" />
        </mxCell>
        <mxCell id="WWW5GYvGID_YNc6uDBtJ-73" value="Coordenadas&amp;nbsp;" style="ellipse;whiteSpace=wrap;html=1;fillColor=#e1d5e7;strokeColor=#9673a6;" parent="1" vertex="1">
          <mxGeometry x="-680" y="650" width="100" height="30" as="geometry" />
        </mxCell>
        <mxCell id="WWW5GYvGID_YNc6uDBtJ-74" value="Fecha de Ocurrencia" style="ellipse;whiteSpace=wrap;html=1;fillColor=#e1d5e7;strokeColor=#9673a6;" parent="1" vertex="1">
          <mxGeometry x="-820" y="620" width="100" height="30" as="geometry" />
        </mxCell>
        <mxCell id="WWW5GYvGID_YNc6uDBtJ-75" value="X" style="ellipse;whiteSpace=wrap;html=1;fillColor=#eeeeee;strokeColor=#36393d;" parent="1" vertex="1">
          <mxGeometry x="-690" y="725" width="20" height="20" as="geometry" />
        </mxCell>
        <mxCell id="WWW5GYvGID_YNc6uDBtJ-76" value="Y" style="ellipse;whiteSpace=wrap;html=1;fillColor=#eeeeee;strokeColor=#36393d;" parent="1" vertex="1">
          <mxGeometry x="-590" y="725" width="20" height="20" as="geometry" />
        </mxCell>
        <mxCell id="WWW5GYvGID_YNc6uDBtJ-77" value="Potencia" style="ellipse;whiteSpace=wrap;html=1;align=center;dashed=1;fillColor=none;strokeColor=#b46504;" parent="1" vertex="1">
          <mxGeometry x="-540" y="615" width="100" height="40" as="geometry" />
        </mxCell>
        <mxCell id="WWW5GYvGID_YNc6uDBtJ-155" style="edgeStyle=none;rounded=0;orthogonalLoop=1;jettySize=auto;html=1;exitX=0;exitY=1;exitDx=0;exitDy=0;entryX=0.5;entryY=0;entryDx=0;entryDy=0;endArrow=none;endFill=0;" parent="1" source="WWW5GYvGID_YNc6uDBtJ-78" target="WWW5GYvGID_YNc6uDBtJ-71" edge="1">
          <mxGeometry relative="1" as="geometry" />
        </mxCell>
        <mxCell id="WWW5GYvGID_YNc6uDBtJ-156" style="edgeStyle=none;rounded=0;orthogonalLoop=1;jettySize=auto;html=1;exitX=1;exitY=1;exitDx=0;exitDy=0;entryX=0.5;entryY=0;entryDx=0;entryDy=0;endArrow=none;endFill=0;" parent="1" source="WWW5GYvGID_YNc6uDBtJ-78" target="WWW5GYvGID_YNc6uDBtJ-70" edge="1">
          <mxGeometry relative="1" as="geometry" />
        </mxCell>
        <mxCell id="WWW5GYvGID_YNc6uDBtJ-78" value="Color" style="rounded=0;whiteSpace=wrap;html=1;fillColor=#dae8fc;strokeColor=#6c8ebf;" parent="1" vertex="1">
          <mxGeometry x="-250" y="660" width="120" height="40" as="geometry" />
        </mxCell>
        <mxCell id="WWW5GYvGID_YNc6uDBtJ-161" style="edgeStyle=none;rounded=0;orthogonalLoop=1;jettySize=auto;html=1;exitX=0.5;exitY=0;exitDx=0;exitDy=0;entryX=0;entryY=0.5;entryDx=0;entryDy=0;endArrow=none;endFill=0;" parent="1" source="WWW5GYvGID_YNc6uDBtJ-80" target="WWW5GYvGID_YNc6uDBtJ-81" edge="1">
          <mxGeometry relative="1" as="geometry" />
        </mxCell>
        <mxCell id="WWW5GYvGID_YNc6uDBtJ-80" value="Codigo" style="ellipse;whiteSpace=wrap;html=1;fillColor=#e1d5e7;strokeColor=#9673a6;" parent="1" vertex="1">
          <mxGeometry x="30" y="390" width="100" height="30" as="geometry" />
        </mxCell>
        <mxCell id="WWW5GYvGID_YNc6uDBtJ-159" style="edgeStyle=none;rounded=0;orthogonalLoop=1;jettySize=auto;html=1;exitX=0.5;exitY=0;exitDx=0;exitDy=0;entryX=0.5;entryY=1;entryDx=0;entryDy=0;endArrow=none;endFill=0;fillColor=#fff2cc;strokeColor=#d6b656;" parent="1" source="WWW5GYvGID_YNc6uDBtJ-81" target="WWW5GYvGID_YNc6uDBtJ-158" edge="1">
          <mxGeometry relative="1" as="geometry" />
        </mxCell>
        <mxCell id="WWW5GYvGID_YNc6uDBtJ-162" style="edgeStyle=none;rounded=0;orthogonalLoop=1;jettySize=auto;html=1;exitX=0.5;exitY=1;exitDx=0;exitDy=0;entryX=0.5;entryY=0;entryDx=0;entryDy=0;endArrow=none;endFill=0;" parent="1" source="WWW5GYvGID_YNc6uDBtJ-81" target="WWW5GYvGID_YNc6uDBtJ-85" edge="1">
          <mxGeometry relative="1" as="geometry" />
        </mxCell>
        <mxCell id="WWW5GYvGID_YNc6uDBtJ-163" style="edgeStyle=none;rounded=0;orthogonalLoop=1;jettySize=auto;html=1;exitX=1;exitY=0.5;exitDx=0;exitDy=0;entryX=0;entryY=0.5;entryDx=0;entryDy=0;endArrow=none;endFill=0;" parent="1" source="WWW5GYvGID_YNc6uDBtJ-81" target="WWW5GYvGID_YNc6uDBtJ-84" edge="1">
          <mxGeometry relative="1" as="geometry" />
        </mxCell>
        <mxCell id="WWW5GYvGID_YNc6uDBtJ-81" value="Premio" style="shape=ext;margin=3;double=1;whiteSpace=wrap;html=1;align=center;fillColor=#b1ddf0;strokeColor=#10739e;" parent="1" vertex="1">
          <mxGeometry x="130" y="340" width="110" height="40" as="geometry" />
        </mxCell>
        <mxCell id="WWW5GYvGID_YNc6uDBtJ-164" style="edgeStyle=none;rounded=0;orthogonalLoop=1;jettySize=auto;html=1;exitX=1;exitY=0.5;exitDx=0;exitDy=0;entryX=0.25;entryY=1;entryDx=0;entryDy=0;endArrow=none;endFill=0;" parent="1" source="WWW5GYvGID_YNc6uDBtJ-84" target="WWW5GYvGID_YNc6uDBtJ-20" edge="1">
          <mxGeometry relative="1" as="geometry" />
        </mxCell>
        <mxCell id="WWW5GYvGID_YNc6uDBtJ-84" value="" style="shape=rhombus;double=1;perimeter=rhombusPerimeter;whiteSpace=wrap;html=1;align=center;fillColor=none;" parent="1" vertex="1">
          <mxGeometry x="320" y="257.5" width="60" height="50" as="geometry" />
        </mxCell>
        <mxCell id="WWW5GYvGID_YNc6uDBtJ-85" value="Categoria" style="ellipse;whiteSpace=wrap;html=1;fillColor=#e1d5e7;strokeColor=#9673a6;" parent="1" vertex="1">
          <mxGeometry x="130" y="430" width="100" height="30" as="geometry" />
        </mxCell>
        <mxCell id="WWW5GYvGID_YNc6uDBtJ-165" style="edgeStyle=none;rounded=0;orthogonalLoop=1;jettySize=auto;html=1;exitX=0.5;exitY=0;exitDx=0;exitDy=0;entryX=0.5;entryY=1;entryDx=0;entryDy=0;endArrow=none;endFill=0;" parent="1" source="WWW5GYvGID_YNc6uDBtJ-86" target="WWW5GYvGID_YNc6uDBtJ-84" edge="1">
          <mxGeometry relative="1" as="geometry" />
        </mxCell>
        <mxCell id="WWW5GYvGID_YNc6uDBtJ-86" value="Fecha" style="ellipse;whiteSpace=wrap;html=1;fillColor=#e1d5e7;strokeColor=#9673a6;" parent="1" vertex="1">
          <mxGeometry x="290" y="342.5" width="100" height="30" as="geometry" />
        </mxCell>
        <mxCell id="WWW5GYvGID_YNc6uDBtJ-95" value="" style="line;strokeWidth=1;rotatable=0;dashed=0;labelPosition=right;align=left;verticalAlign=middle;spacingTop=0;spacingLeft=6;points=[];portConstraint=eastwest;" parent="1" vertex="1">
          <mxGeometry x="-180" y="297.5" height="50" as="geometry" />
        </mxCell>
        <mxCell id="WWW5GYvGID_YNc6uDBtJ-154" style="edgeStyle=none;rounded=0;orthogonalLoop=1;jettySize=auto;html=1;exitX=0.5;exitY=1;exitDx=0;exitDy=0;entryX=0.5;entryY=0;entryDx=0;entryDy=0;endArrow=none;endFill=0;" parent="1" source="WWW5GYvGID_YNc6uDBtJ-126" target="WWW5GYvGID_YNc6uDBtJ-78" edge="1">
          <mxGeometry relative="1" as="geometry" />
        </mxCell>
        <mxCell id="WWW5GYvGID_YNc6uDBtJ-126" value="Calidad" style="shape=rhombus;perimeter=rhombusPerimeter;whiteSpace=wrap;html=1;align=center;" parent="1" vertex="1">
          <mxGeometry x="-220" y="585" width="60" height="40" as="geometry" />
        </mxCell>
        <mxCell id="WWW5GYvGID_YNc6uDBtJ-144" style="edgeStyle=none;rounded=0;orthogonalLoop=1;jettySize=auto;html=1;exitX=0.5;exitY=0;exitDx=0;exitDy=0;entryX=0.5;entryY=1;entryDx=0;entryDy=0;endArrow=none;endFill=0;" parent="1" source="WWW5GYvGID_YNc6uDBtJ-143" target="WWW5GYvGID_YNc6uDBtJ-20" edge="1">
          <mxGeometry relative="1" as="geometry" />
        </mxCell>
        <mxCell id="WWW5GYvGID_YNc6uDBtJ-145" style="edgeStyle=none;rounded=0;orthogonalLoop=1;jettySize=auto;html=1;exitX=0.5;exitY=1;exitDx=0;exitDy=0;entryX=0.5;entryY=0;entryDx=0;entryDy=0;endArrow=none;endFill=0;" parent="1" source="WWW5GYvGID_YNc6uDBtJ-143" target="WWW5GYvGID_YNc6uDBtJ-48" edge="1">
          <mxGeometry relative="1" as="geometry" />
        </mxCell>
        <mxCell id="WWW5GYvGID_YNc6uDBtJ-143" value="" style="shape=rhombus;perimeter=rhombusPerimeter;whiteSpace=wrap;html=1;align=center;" parent="1" vertex="1">
          <mxGeometry x="528" y="257.5" width="60" height="40" as="geometry" />
        </mxCell>
        <mxCell id="WWW5GYvGID_YNc6uDBtJ-157" style="edgeStyle=none;rounded=0;orthogonalLoop=1;jettySize=auto;html=1;exitX=0.5;exitY=0;exitDx=0;exitDy=0;entryX=0.5;entryY=1;entryDx=0;entryDy=0;endArrow=none;endFill=0;" parent="1" source="WWW5GYvGID_YNc6uDBtJ-77" target="WWW5GYvGID_YNc6uDBtJ-65" edge="1">
          <mxGeometry relative="1" as="geometry" />
        </mxCell>
        <mxCell id="guga55nEFlPqjxyu7WlX-17" style="edgeStyle=orthogonalEdgeStyle;rounded=0;orthogonalLoop=1;jettySize=auto;html=1;exitX=0.5;exitY=0;exitDx=0;exitDy=0;entryX=0;entryY=0;entryDx=0;entryDy=0;endArrow=none;endFill=0;fillColor=#fff2cc;strokeColor=#d6b656;" edge="1" parent="1" source="WWW5GYvGID_YNc6uDBtJ-158" target="guga55nEFlPqjxyu7WlX-14">
          <mxGeometry relative="1" as="geometry">
            <Array as="points">
              <mxPoint x="-30" y="258" />
              <mxPoint x="-30" y="390" />
              <mxPoint x="-550" y="390" />
            </Array>
          </mxGeometry>
        </mxCell>
        <mxCell id="WWW5GYvGID_YNc6uDBtJ-158" value="" style="shape=rhombus;perimeter=rhombusPerimeter;whiteSpace=wrap;html=1;align=center;fillColor=none;strokeColor=#d6b656;" parent="1" vertex="1">
          <mxGeometry x="150" y="257.5" width="60" height="40" as="geometry" />
        </mxCell>
        <mxCell id="WWW5GYvGID_YNc6uDBtJ-170" value="&lt;font style=&quot;font-size: 18px;&quot;&gt;(1)&lt;/font&gt;" style="text;strokeColor=none;align=center;fillColor=none;html=1;verticalAlign=middle;whiteSpace=wrap;rounded=0;" parent="1" vertex="1">
          <mxGeometry x="534" y="312.5" width="60" height="30" as="geometry" />
        </mxCell>
        <mxCell id="WWW5GYvGID_YNc6uDBtJ-171" value="&lt;font style=&quot;font-size: 18px;&quot;&gt;(*)&lt;/font&gt;" style="text;strokeColor=none;align=center;fillColor=none;html=1;verticalAlign=middle;whiteSpace=wrap;rounded=0;" parent="1" vertex="1">
          <mxGeometry x="506" y="200" width="60" height="30" as="geometry" />
        </mxCell>
        <mxCell id="WWW5GYvGID_YNc6uDBtJ-173" value="&lt;font style=&quot;font-size: 18px;&quot;&gt;(1)&lt;/font&gt;" style="text;strokeColor=none;align=center;fillColor=none;html=1;verticalAlign=middle;whiteSpace=wrap;rounded=0;" parent="1" vertex="1">
          <mxGeometry x="-550" y="260" width="60" height="30" as="geometry" />
        </mxCell>
        <mxCell id="WWW5GYvGID_YNc6uDBtJ-174" value="&lt;font style=&quot;font-size: 18px;&quot;&gt;(*)&lt;/font&gt;" style="text;strokeColor=none;align=center;fillColor=none;html=1;verticalAlign=middle;whiteSpace=wrap;rounded=0;" parent="1" vertex="1">
          <mxGeometry x="140" y="302.5" width="60" height="30" as="geometry" />
        </mxCell>
        <mxCell id="guga55nEFlPqjxyu7WlX-1" value="&lt;font style=&quot;font-size: 18px;&quot;&gt;(*)&lt;/font&gt;" style="text;strokeColor=none;align=center;fillColor=none;html=1;verticalAlign=middle;whiteSpace=wrap;rounded=0;" vertex="1" parent="1">
          <mxGeometry x="414" y="210" width="60" height="30" as="geometry" />
        </mxCell>
        <mxCell id="guga55nEFlPqjxyu7WlX-2" value="&lt;font style=&quot;font-size: 18px;&quot;&gt;(*)&lt;/font&gt;" style="text;strokeColor=none;align=center;fillColor=none;html=1;verticalAlign=middle;whiteSpace=wrap;rounded=0;" vertex="1" parent="1">
          <mxGeometry x="230" y="352.5" width="60" height="30" as="geometry" />
        </mxCell>
        <mxCell id="guga55nEFlPqjxyu7WlX-13" style="edgeStyle=orthogonalEdgeStyle;rounded=0;orthogonalLoop=1;jettySize=auto;html=1;exitX=0.5;exitY=1;exitDx=0;exitDy=0;entryX=0.5;entryY=1;entryDx=0;entryDy=0;endArrow=none;endFill=0;fillColor=#f8cecc;strokeColor=#b85450;" edge="1" parent="1" source="guga55nEFlPqjxyu7WlX-9" target="WWW5GYvGID_YNc6uDBtJ-18">
          <mxGeometry relative="1" as="geometry">
            <Array as="points">
              <mxPoint x="-365" y="333" />
              <mxPoint x="-365" y="360" />
              <mxPoint x="-530" y="360" />
            </Array>
          </mxGeometry>
        </mxCell>
        <mxCell id="guga55nEFlPqjxyu7WlX-9" value="" style="shape=rhombus;perimeter=rhombusPerimeter;whiteSpace=wrap;html=1;align=center;fillColor=none;strokeColor=#b85450;" vertex="1" parent="1">
          <mxGeometry x="-413" y="280.5" width="90" height="52" as="geometry" />
        </mxCell>
        <mxCell id="guga55nEFlPqjxyu7WlX-10" style="edgeStyle=orthogonalEdgeStyle;rounded=0;orthogonalLoop=1;jettySize=auto;html=1;exitX=0.5;exitY=0;exitDx=0;exitDy=0;entryX=0.449;entryY=0.003;entryDx=0;entryDy=0;entryPerimeter=0;endArrow=none;endFill=0;fillColor=#f8cecc;strokeColor=#b85450;" edge="1" parent="1" source="guga55nEFlPqjxyu7WlX-9" target="WWW5GYvGID_YNc6uDBtJ-18">
          <mxGeometry relative="1" as="geometry">
            <Array as="points">
              <mxPoint x="-365" y="250" />
              <mxPoint x="-536" y="250" />
            </Array>
          </mxGeometry>
        </mxCell>
        <mxCell id="guga55nEFlPqjxyu7WlX-11" value="&lt;span style=&quot;color: rgb(0, 0, 0); font-family: Helvetica; font-style: normal; font-variant-ligatures: normal; font-variant-caps: normal; font-weight: 400; letter-spacing: normal; orphans: 2; text-align: center; text-indent: 0px; text-transform: none; widows: 2; word-spacing: 0px; -webkit-text-stroke-width: 0px; background-color: rgb(251, 251, 251); text-decoration-thickness: initial; text-decoration-style: initial; text-decoration-color: initial; float: none; display: inline !important;&quot;&gt;&lt;font style=&quot;font-size: 15px;&quot;&gt;Personaje&amp;nbsp;&lt;/font&gt;&lt;/span&gt;" style="text;whiteSpace=wrap;html=1;" vertex="1" parent="1">
          <mxGeometry x="-480" y="217.5" width="90" height="40" as="geometry" />
        </mxCell>
        <mxCell id="guga55nEFlPqjxyu7WlX-12" value="&lt;span style=&quot;color: rgb(0, 0, 0); font-family: Helvetica; font-style: normal; font-variant-ligatures: normal; font-variant-caps: normal; font-weight: 400; letter-spacing: normal; orphans: 2; text-align: center; text-indent: 0px; text-transform: none; widows: 2; word-spacing: 0px; -webkit-text-stroke-width: 0px; background-color: rgb(251, 251, 251); text-decoration-thickness: initial; text-decoration-style: initial; text-decoration-color: initial; float: none; display: inline !important;&quot;&gt;&lt;font style=&quot;font-size: 15px;&quot;&gt;Enemigo&lt;/font&gt;&lt;/span&gt;" style="text;whiteSpace=wrap;html=1;" vertex="1" parent="1">
          <mxGeometry x="-480" y="360" width="90" height="40" as="geometry" />
        </mxCell>
        <mxCell id="guga55nEFlPqjxyu7WlX-14" value="&lt;font style=&quot;font-size: 18px;&quot;&gt;(1)&lt;/font&gt;" style="text;strokeColor=none;align=center;fillColor=none;html=1;verticalAlign=middle;whiteSpace=wrap;rounded=0;" vertex="1" parent="1">
          <mxGeometry x="-550" y="330" width="60" height="30" as="geometry" />
        </mxCell>
        <mxCell id="guga55nEFlPqjxyu7WlX-15" value="&lt;font style=&quot;font-size: 18px;&quot;&gt;(*)&lt;/font&gt;" style="text;strokeColor=none;align=center;fillColor=none;html=1;verticalAlign=middle;whiteSpace=wrap;rounded=0;" vertex="1" parent="1">
          <mxGeometry x="-230" y="555" width="60" height="30" as="geometry" />
        </mxCell>
        <mxCell id="guga55nEFlPqjxyu7WlX-16" value="&lt;font style=&quot;font-size: 18px;&quot;&gt;(*)&lt;/font&gt;" style="text;strokeColor=none;align=center;fillColor=none;html=1;verticalAlign=middle;whiteSpace=wrap;rounded=0;" vertex="1" parent="1">
          <mxGeometry x="-200" y="630" width="60" height="30" as="geometry" />
        </mxCell>
        <mxCell id="guga55nEFlPqjxyu7WlX-18" value="&lt;font style=&quot;font-size: 18px;&quot;&gt;(1)&lt;/font&gt;" style="text;strokeColor=none;align=center;fillColor=none;html=1;verticalAlign=middle;whiteSpace=wrap;rounded=0;" vertex="1" parent="1">
          <mxGeometry x="130" y="222.5" width="60" height="30" as="geometry" />
        </mxCell>
        <mxCell id="guga55nEFlPqjxyu7WlX-20" style="edgeStyle=orthogonalEdgeStyle;rounded=0;orthogonalLoop=1;jettySize=auto;html=1;exitX=1;exitY=0.5;exitDx=0;exitDy=0;entryX=0;entryY=0.5;entryDx=0;entryDy=0;endArrow=none;endFill=0;fillColor=#1ba1e2;strokeColor=#006EAF;" edge="1" parent="1" source="guga55nEFlPqjxyu7WlX-19" target="WWW5GYvGID_YNc6uDBtJ-20">
          <mxGeometry relative="1" as="geometry">
            <Array as="points">
              <mxPoint x="330" y="150" />
              <mxPoint x="330" y="180" />
            </Array>
          </mxGeometry>
        </mxCell>
        <mxCell id="guga55nEFlPqjxyu7WlX-21" style="edgeStyle=orthogonalEdgeStyle;rounded=0;orthogonalLoop=1;jettySize=auto;html=1;exitX=0;exitY=0.5;exitDx=0;exitDy=0;entryX=0.25;entryY=0;entryDx=0;entryDy=0;endArrow=none;endFill=0;fillColor=#1ba1e2;strokeColor=#006EAF;" edge="1" parent="1" source="guga55nEFlPqjxyu7WlX-19" target="WWW5GYvGID_YNc6uDBtJ-18">
          <mxGeometry relative="1" as="geometry">
            <Array as="points">
              <mxPoint x="170" y="150" />
              <mxPoint x="-560" y="150" />
            </Array>
          </mxGeometry>
        </mxCell>
        <mxCell id="guga55nEFlPqjxyu7WlX-19" value="" style="shape=rhombus;perimeter=rhombusPerimeter;whiteSpace=wrap;html=1;align=center;fillColor=none;fontColor=#ffffff;strokeColor=#006EAF;" vertex="1" parent="1">
          <mxGeometry x="170" y="130" width="60" height="40" as="geometry" />
        </mxCell>
        <mxCell id="guga55nEFlPqjxyu7WlX-22" value="&lt;font style=&quot;font-size: 18px;&quot;&gt;(1)&lt;/font&gt;" style="text;strokeColor=none;align=center;fillColor=none;html=1;verticalAlign=middle;whiteSpace=wrap;rounded=0;" vertex="1" parent="1">
          <mxGeometry x="120" y="110" width="60" height="30" as="geometry" />
        </mxCell>
        <mxCell id="guga55nEFlPqjxyu7WlX-23" value="&lt;font style=&quot;font-size: 18px;&quot;&gt;(2,*)&lt;/font&gt;" style="text;strokeColor=none;align=center;fillColor=none;html=1;verticalAlign=middle;whiteSpace=wrap;rounded=0;" vertex="1" parent="1">
          <mxGeometry x="230" y="110" width="60" height="30" as="geometry" />
        </mxCell>
      </root>
    </mxGraphModel>
  </diagram>
</mxfile>
